<svg xmlns="http://www.w3.org/2000/svg" width="1200" height="675" viewBox="0 0 1200 675">
  <defs>
    <linearGradient id="g" x1="0" y1="0" x2="1" y2="1">
      <stop offset="0" stop-color="#0b1020"/>
      <stop offset="1" stop-color="#122b3a"/>
    </linearGradient>
  </defs>
  <rect width="1200" height="675" fill="url(#g)"/>
  <rect x="84" y="92" width="1032" height="491" rx="24" fill="#0f1a2a" stroke="#25324a"/>
  <text x="120" y="170" fill="#eaf0ff" font-family="ui-sans-serif, system-ui" font-size="44" font-weight="700">Ops Pulse</text>
  <text x="120" y="214" fill="#9db0d0" font-family="ui-sans-serif, system-ui" font-size="20">Operations analytics dashboards</text>

  <g transform="translate(120,260)">
    <rect width="280" height="120" rx="16" fill="#111f33" stroke="#2a3a57"/>
    <text x="20" y="44" fill="#9db0d0" font-family="ui-sans-serif, system-ui" font-size="14">Throughput</text>
    <text x="20" y="88" fill="#eaf0ff" font-family="ui-sans-serif, system-ui" font-size="34" font-weight="700">1,248</text>
  </g>
  <g transform="translate(420,260)">
    <rect width="280" height="120" rx="16" fill="#111f33" stroke="#2a3a57"/>
    <text x="20" y="44" fill="#9db0d0" font-family="ui-sans-serif, system-ui" font-size="14">Backlog</text>
    <text x="20" y="88" fill="#eaf0ff" font-family="ui-sans-serif, system-ui" font-size="34" font-weight="700">3.6k</text>
  </g>
  <g transform="translate(720,260)">
    <rect width="280" height="120" rx="16" fill="#111f33" stroke="#2a3a57"/>
    <text x="20" y="44" fill="#9db0d0" font-family="ui-sans-serif, system-ui" font-size="14">Service Level</text>
    <text x="20" y="88" fill="#eaf0ff" font-family="ui-sans-serif, system-ui" font-size="34" font-weight="700">96%</text>
  </g>

  <g transform="translate(120,408)">
    <rect width="880" height="140" rx="16" fill="#111f33" stroke="#2a3a57"/>
    <path d="M40,100 C140,40 220,120 320,70 C420,20 520,110 620,60 C720,20 800,80 840,40" fill="none" stroke="#7c5cff" stroke-width="4"/>
    <circle cx="40" cy="100" r="5" fill="#7c5cff"/>
    <circle cx="320" cy="70" r="5" fill="#7c5cff"/>
    <circle cx="620" cy="60" r="5" fill="#7c5cff"/>
    <circle cx="840" cy="40" r="5" fill="#7c5cff"/>
  </g>
</svg>
